<?xml version="1.0" standalone="no"?>
<!DOCTYPE svg PUBLIC "-//W3C//DTD SVG 20010904//EN"
 "http://www.w3.org/TR/2001/REC-SVG-20010904/DTD/svg10.dtd">
<svg version="1.0" xmlns="http://www.w3.org/2000/svg"
 width="1200.000000pt" height="1552.000000pt" viewBox="0 0 1200.000000 1552.000000"
 preserveAspectRatio="xMidYMid meet">

<g transform="translate(0.000000,1552.000000) scale(0.100000,-0.100000)"
fill="#000000" stroke="none">
<path d="M4415 15509 c-780 -62 -1483 -364 -1927 -828 -225 -235 -371 -501
-441 -806 -21 -89 -21 -110 -27 -2190 -7 -2293 -5 -2203 -65 -2452 -45 -187
-103 -320 -215 -486 -122 -183 -323 -377 -527 -511 -278 -182 -582 -275 -991
-305 -109 -8 -126 -12 -156 -35 -46 -35 -70 -100 -63 -170 11 -104 40 -122
240 -142 263 -27 464 -73 664 -154 540 -216 915 -631 1049 -1162 62 -246 57
-51 64 -2333 7 -2263 4 -2147 59 -2379 83 -346 302 -673 639 -954 347 -288
915 -501 1555 -582 115 -15 217 -20 378 -20 237 0 260 4 292 54 37 56 33 176
-7 219 -31 33 -70 43 -246 62 -658 72 -1158 345 -1462 799 -105 158 -171 312
-240 561 l-33 120 -6 2110 c-4 1484 -10 2131 -18 2180 -59 372 -141 560 -370
845 -318 398 -561 564 -1099 750 l-153 53 143 52 c789 285 1262 746 1432 1391
63 242 59 88 65 2369 7 2322 1 2130 78 2384 91 304 291 601 527 786 315 245
696 384 1200 435 114 12 120 14 157 47 60 54 75 141 40 220 -32 69 -58 77
-256 79 -93 1 -219 -2 -280 -7z"/>
<path d="M7150 15511 c-100 -22 -147 -87 -137 -188 7 -66 28 -100 72 -119 18
-7 100 -20 181 -29 260 -27 429 -63 613 -131 438 -162 775 -454 966 -834 60
-120 87 -192 131 -349 31 -111 36 -147 44 -301 5 -96 9 -1033 9 -2081 1 -1224
5 -1944 11 -2010 38 -380 135 -611 391 -929 297 -369 532 -529 1058 -721 l183
-67 -68 -22 c-213 -70 -488 -196 -656 -301 -521 -325 -828 -789 -903 -1362
-13 -103 -15 -375 -15 -2090 0 -1190 -4 -2012 -10 -2072 -14 -143 -35 -241
-86 -395 -145 -439 -475 -790 -924 -981 -237 -101 -521 -169 -812 -194 -93 -8
-133 -31 -165 -95 -43 -84 -18 -182 56 -219 37 -19 58 -21 263 -21 259 0 419
16 663 65 829 168 1483 601 1773 1173 68 133 111 251 143 397 l23 100 6 2105
c5 1567 10 2128 19 2195 60 441 202 724 513 1020 342 326 734 489 1254 523
143 10 177 25 212 92 41 82 21 185 -43 222 -17 9 -72 22 -125 28 -328 37 -446
61 -630 125 -581 203 -989 628 -1134 1183 -64 245 -59 47 -66 2332 -6 1902 -8
2095 -23 2200 -42 276 -115 474 -251 685 -107 164 -315 385 -480 509 -355 267
-886 457 -1506 537 -165 21 -492 33 -550 20z"/>
</g>
</svg>
